<?xml version="1.0" encoding="UTF-8"?><svg id="Layer_1" xmlns="http://www.w3.org/2000/svg" viewBox="0 0 612 612"><defs><style>.cls-1{fill:#08f6fd;}</style></defs><circle class="cls-1" cx="306.38" cy="306.1" r="295.43"/><circle cx="249.37" cy="222.11" r="38.55"/><circle cx="363.38" cy="219.56" r="38.55"/><path d="M306.38,500.94c-61.02,0-118.38-23.76-161.52-66.91-43.15-43.14-66.91-100.51-66.91-161.52,0-7.3,5.91-13.21,13.21-13.21s13.21,5.91,13.21,13.21c0,111.39,90.62,202.01,202.01,202.01s202.01-90.62,202.01-202.01c0-7.3,5.92-13.21,13.21-13.21s13.21,5.91,13.21,13.21c0,61.02-23.76,118.38-66.91,161.52-43.14,43.14-100.51,66.91-161.52,66.91Z"/></svg>